<?xml version="1.0" standalone="no"?>
<!DOCTYPE svg PUBLIC "-//W3C//DTD SVG 20010904//EN"
 "http://www.w3.org/TR/2001/REC-SVG-20010904/DTD/svg10.dtd">
<svg version="1.0" xmlns="http://www.w3.org/2000/svg"
 width="512.000000pt" height="512.000000pt" viewBox="0 0 512.000000 512.000000"
 preserveAspectRatio="xMidYMid meet">
<metadata>
Created by potrace 1.11, written by Peter Selinger 2001-2013
</metadata>
<g transform="translate(0.000000,512.000000) scale(0.100000,-0.100000)"
fill="#000000" stroke="none">
<path d="M700 5010 c-25 -3 -54 -11 -65 -17 -27 -15 -68 -61 -91 -103 -19 -34
-20 -70 -19 -2115 1 -1280 -2 -2085 -8 -2092 -6 -8 -6 -13 1 -13 10 0 9 -50
-2 -68 -3 -6 -3 -13 1 -15 13 -8 8 -142 -4 -142 -6 0 -15 -3 -19 -7 -3 -4 3
-6 15 -3 16 3 21 -1 21 -18 0 -13 7 -33 16 -45 12 -17 12 -22 2 -23 -7 0 -3
-4 9 -9 16 -7 21 -14 16 -27 -3 -10 -3 -15 1 -11 4 3 22 -7 38 -23 17 -16 36
-29 43 -29 7 0 18 -6 24 -14 17 -20 97 -40 163 -39 37 0 55 -3 51 -10 -4 -6
-1 -7 8 -1 20 12 102 17 95 5 -4 -5 -2 -13 4 -16 6 -4 9 -1 8 7 -2 9 10 14 36
16 23 2 36 0 32 -7 -4 -5 -1 -13 5 -17 8 -4 9 -3 5 5 -11 17 24 26 46 12 11
-7 18 -8 14 -3 -8 14 94 14 112 0 9 -7 13 -8 9 -2 -9 16 92 18 111 2 9 -7 13
-8 9 -2 -4 7 11 11 44 13 30 1 48 -2 45 -8 -4 -5 -2 -13 4 -16 6 -4 9 -1 8 7
-2 9 10 14 36 16 23 2 36 0 32 -7 -4 -5 -2 -13 4 -16 6 -4 9 -1 8 7 -4 17 71
21 91 5 9 -7 12 -8 8 -1 -8 13 131 13 152 0 9 -6 12 -5 8 1 -4 6 19 11 64 12
44 1 68 -2 65 -8 -4 -5 -2 -13 4 -16 6 -4 9 -1 8 7 -2 9 10 14 36 16 23 2 36
0 32 -7 -4 -5 -1 -13 5 -17 8 -4 9 -3 5 5 -11 17 24 26 46 12 11 -7 18 -8 14
-3 -8 14 94 14 112 0 9 -7 13 -8 9 -2 -9 16 92 18 111 2 9 -7 13 -8 9 -2 -4 7
11 11 44 13 30 1 48 -2 45 -8 -4 -5 -2 -13 4 -16 6 -4 9 -1 8 7 -2 9 10 14 36
16 23 2 36 0 32 -7 -4 -5 -2 -13 4 -16 6 -4 9 -1 8 7 -4 17 71 21 91 5 9 -7
12 -8 8 -1 -8 13 131 13 152 0 9 -6 12 -5 8 1 -4 6 19 11 64 12 44 1 68 -2 65
-8 -4 -5 -2 -13 4 -16 6 -4 9 -1 8 7 -2 9 10 14 36 16 23 2 36 0 32 -7 -4 -5
-1 -13 5 -17 8 -4 9 -3 5 5 -11 17 24 26 46 12 11 -7 18 -8 14 -3 -8 14 94 14
112 0 9 -7 13 -8 9 -2 -9 16 92 18 111 2 9 -7 13 -8 9 -2 -4 7 11 11 44 13 30
1 48 -2 45 -8 -4 -5 -2 -13 4 -16 6 -4 9 -1 8 7 -2 9 10 14 36 16 23 2 36 0
32 -7 -4 -5 -2 -13 4 -16 6 -4 9 -1 8 7 -4 17 71 21 91 5 9 -7 12 -8 8 -1 -8
13 131 13 152 0 9 -6 12 -5 8 1 -4 6 21 10 64 11 39 1 67 -3 64 -8 -3 -5 -1
-12 5 -15 6 -4 9 -1 8 7 -2 9 10 14 36 16 23 2 36 0 32 -7 -4 -5 -1 -13 5 -17
8 -4 9 -3 5 5 -11 17 24 26 46 12 12 -7 17 -8 13 -2 -3 7 2 11 15 11 13 0 19
-4 14 -12 -5 -7 -3 -8 7 -2 22 13 121 15 113 2 -5 -7 -2 -8 7 -2 14 8 46 14
101 17 14 1 24 5 22 9 -2 3 6 10 18 13 13 4 36 19 52 34 26 24 78 96 82 114 1
4 3 10 4 15 1 4 2 11 1 16 -1 5 5 6 14 3 8 -4 15 -2 15 3 0 6 -4 10 -10 10
-12 0 -9 133 5 142 6 5 6 8 -2 8 -7 0 -13 7 -13 16 0 9 5 12 13 8 7 -5 7 -1
-2 10 -12 14 -12 19 -2 26 11 6 11 8 0 12 -12 4 -11 8 1 23 9 11 10 16 3 11
-10 -6 -13 376 -14 1896 0 1047 -3 1914 -5 1928 -12 64 -55 120 -231 300 -134
137 -194 192 -221 201 -27 9 -428 12 -1651 13 -889 1 -1636 -1 -1661 -4z"/>
<path d="M4575 581 c-3 -5 -2 -12 3 -15 5 -3 9 1 9 9 0 17 -3 19 -12 6z"/>
<path d="M497 555 c-4 -8 -3 -16 1 -19 4 -3 9 4 9 15 2 23 -3 25 -10 4z"/>
<path d="M4513 527 c-1 -11 -1 -18 0 -16 2 2 8 11 15 20 9 12 9 16 -1 16 -7 0
-14 -9 -14 -20z"/>
<path d="M4595 539 c-3 -4 2 -6 10 -5 21 3 28 13 10 13 -9 0 -18 -4 -20 -8z"/>
<path d="M4539 513 c-12 -16 -12 -17 2 -6 9 7 20 9 24 5 5 -4 5 -1 1 6 -9 16
-11 15 -27 -5z"/>
<path d="M4610 500 c0 -5 5 -10 11 -10 5 0 7 5 4 10 -3 6 -8 10 -11 10 -2 0
-4 -4 -4 -10z"/>
<path d="M4488 482 c8 -5 13 -13 12 -18 0 -5 6 -10 14 -12 9 -2 16 1 16 7 0 6
-7 8 -15 4 -10 -3 -15 -1 -13 7 2 7 -4 15 -12 17 -12 4 -12 3 -2 -5z"/>
<path d="M4540 451 c0 -10 19 -25 25 -20 1 2 -3 10 -11 17 -8 7 -14 8 -14 3z"/>
<path d="M4500 426 c0 -2 7 -6 15 -10 8 -3 15 -1 15 4 0 6 -7 10 -15 10 -8 0
-15 -2 -15 -4z"/>
<path d="M4595 391 c1 -20 -2 -41 -7 -47 -4 -6 -2 -11 5 -11 9 0 13 13 12 36
-1 20 2 41 7 47 4 6 2 11 -5 11 -9 0 -13 -13 -12 -36z"/>
<path d="M4655 421 c-3 -5 -2 -12 3 -15 5 -3 9 1 9 9 0 17 -3 19 -12 6z"/>
<path d="M4540 405 c0 -8 4 -15 10 -15 5 0 7 7 4 15 -4 8 -8 15 -10 15 -2 0
-4 -7 -4 -15z"/>
<path d="M460 406 c0 -2 8 -10 18 -17 15 -13 16 -12 3 4 -13 16 -21 21 -21 13z"/>
<path d="M4511 393 c7 -12 15 -20 18 -17 3 2 -3 12 -13 22 -17 16 -18 16 -5
-5z"/>
<path d="M4481 381 c-10 -7 -11 -12 -1 -27 8 -14 10 -15 6 -2 -8 26 7 31 21 6
7 -13 12 -18 13 -12 0 21 -25 44 -39 35z"/>
<path d="M4650 380 c0 -5 5 -10 11 -10 5 0 7 5 4 10 -3 6 -8 10 -11 10 -2 0
-4 -4 -4 -10z"/>
<path d="M470 359 c0 -5 5 -7 10 -4 6 3 10 8 10 11 0 2 -4 4 -10 4 -5 0 -10
-5 -10 -11z"/>
<path d="M499 353 c-13 -17 -13 -17 6 -3 11 8 22 16 24 17 2 2 0 3 -6 3 -6 0
-17 -8 -24 -17z"/>
<path d="M4550 350 c6 -11 13 -20 16 -20 2 0 0 9 -6 20 -6 11 -13 20 -16 20
-2 0 0 -9 6 -20z"/>
<path d="M4445 340 c-3 -6 1 -7 9 -4 18 7 21 14 7 14 -6 0 -13 -4 -16 -10z"/>
<path d="M494 319 c-2 -4 4 -6 13 -4 10 1 23 -1 29 -6 6 -5 11 -4 11 4 0 14
-45 18 -53 6z"/>
<path d="M4459 323 c-1 -5 -1 -12 0 -17 1 -5 -5 -6 -14 -3 -8 4 -15 2 -15 -4
0 -6 8 -9 17 -7 9 2 15 7 14 12 -2 5 3 13 11 17 10 7 10 9 1 9 -7 0 -14 -3
-14 -7z"/>
<path d="M4506 315 c10 -8 23 -15 28 -15 6 0 1 7 -10 15 -10 8 -23 15 -28 15
-6 0 -1 -7 10 -15z"/>
<path d="M4531 327 c2 -1 13 -9 24 -17 19 -14 19 -14 6 3 -7 9 -18 17 -24 17
-6 0 -8 -1 -6 -3z"/>
<path d="M4480 306 c0 -2 7 -7 16 -10 8 -3 12 -2 9 4 -6 10 -25 14 -25 6z"/>
<path d="M4591 293 c7 -12 15 -20 18 -17 3 2 -3 12 -13 22 -17 16 -18 16 -5
-5z"/>
<path d="M430 279 c0 -5 5 -7 10 -4 6 3 10 8 10 11 0 2 -4 4 -10 4 -5 0 -10
-5 -10 -11z"/>
<path d="M4411 278 c-1 -22 9 -28 34 -17 19 9 19 9 -2 5 -14 -2 -23 2 -26 13
-4 14 -5 14 -6 -1z"/>
<path d="M4470 279 c0 -5 5 -7 10 -4 6 3 10 8 10 11 0 2 -4 4 -10 4 -5 0 -10
-5 -10 -11z"/>
<path d="M495 260 c-3 -5 -1 -10 4 -10 6 0 11 5 11 10 0 6 -2 10 -4 10 -3 0
-8 -4 -11 -10z"/>
<path d="M4510 261 c0 -6 4 -12 8 -15 5 -3 9 1 9 9 0 8 -4 15 -9 15 -4 0 -8
-4 -8 -9z"/>
<path d="M4369 243 c-13 -16 -12 -17 4 -4 16 13 21 21 13 21 -2 0 -10 -8 -17
-17z"/>
<path d="M4440 240 c-8 -5 -10 -10 -5 -10 6 0 17 5 25 10 8 5 11 10 5 10 -5 0
-17 -5 -25 -10z"/>
<path d="M595 231 c-3 -5 -2 -12 3 -15 5 -3 9 1 9 9 0 17 -3 19 -12 6z"/>
<path d="M536 222 c-3 -5 1 -9 9 -9 8 0 12 4 9 9 -3 4 -7 8 -9 8 -2 0 -6 -4
-9 -8z"/>
<path d="M4390 226 c0 -2 7 -7 16 -10 8 -3 12 -2 9 4 -6 10 -25 14 -25 6z"/>
<path d="M4329 203 c-13 -16 -12 -17 4 -4 9 7 17 15 17 17 0 8 -8 3 -21 -13z"/>
<path d="M4373 207 c0 -8 6 -14 14 -14 9 0 10 4 2 14 -6 7 -12 13 -14 13 -1 0
-2 -6 -2 -13z"/>
<path d="M656 198 c3 -5 10 -6 15 -2 5 3 16 1 23 -5 9 -8 13 -7 13 2 0 8 -12
13 -28 13 -15 0 -26 -3 -23 -8z"/>
<path d="M610 179 c0 -5 5 -7 10 -4 6 3 10 8 10 11 0 2 -4 4 -10 4 -5 0 -10
-5 -10 -11z"/>
<path d="M1426 182 c-2 -4 4 -8 14 -8 10 0 16 4 14 8 -3 4 -9 8 -14 8 -5 0
-11 -4 -14 -8z"/>
<path d="M1910 186 c0 -2 7 -7 16 -10 8 -3 12 -2 9 4 -6 10 -25 14 -25 6z"/>
<path d="M2386 182 c-2 -4 4 -8 14 -8 10 0 16 4 14 8 -3 4 -9 8 -14 8 -5 0
-11 -4 -14 -8z"/>
<path d="M2870 186 c0 -2 7 -7 16 -10 8 -3 12 -2 9 4 -6 10 -25 14 -25 6z"/>
<path d="M3346 182 c-2 -4 4 -8 14 -8 10 0 16 4 14 8 -3 4 -9 8 -14 8 -5 0
-11 -4 -14 -8z"/>
<path d="M3830 186 c0 -2 7 -7 16 -10 8 -3 12 -2 9 4 -6 10 -25 14 -25 6z"/>
<path d="M4515 180 c3 -5 8 -10 11 -10 2 0 4 5 4 10 0 6 -5 10 -11 10 -5 0 -7
-4 -4 -10z"/>
<path d="M4219 178 c-6 -20 -6 -39 0 -42 4 -3 7 6 7 20 0 20 -4 32 -7 22z"/>
<path d="M4653 165 c0 -8 4 -12 9 -9 5 3 6 10 3 15 -9 13 -12 11 -12 -6z"/>
<path d="M806 162 c-2 -4 4 -8 14 -8 10 0 16 4 14 8 -3 4 -9 8 -14 8 -5 0 -11
-4 -14 -8z"/>
<path d="M906 158 c3 -5 10 -6 15 -3 13 9 11 12 -6 12 -8 0 -12 -4 -9 -9z"/>
<path d="M1735 160 c3 -5 8 -10 11 -10 2 0 4 5 4 10 0 6 -5 10 -11 10 -5 0 -7
-4 -4 -10z"/>
<path d="M2695 160 c3 -5 8 -10 11 -10 2 0 4 5 4 10 0 6 -5 10 -11 10 -5 0 -7
-4 -4 -10z"/>
<path d="M3655 160 c3 -5 8 -10 11 -10 2 0 4 5 4 10 0 6 -5 10 -11 10 -5 0 -7
-4 -4 -10z"/>
<path d="M710 139 c0 -5 5 -7 10 -4 6 3 10 8 10 11 0 2 -4 4 -10 4 -5 0 -10
-5 -10 -11z"/>
<path d="M935 140 c3 -5 8 -10 11 -10 2 0 4 5 4 10 0 6 -5 10 -11 10 -5 0 -7
-4 -4 -10z"/>
<path d="M1215 140 c3 -5 8 -10 11 -10 2 0 4 5 4 10 0 6 -5 10 -11 10 -5 0 -7
-4 -4 -10z"/>
<path d="M1246 142 c-3 -5 1 -9 9 -9 8 0 12 4 9 9 -3 4 -7 8 -9 8 -2 0 -6 -4
-9 -8z"/>
<path d="M1415 140 c3 -5 8 -10 11 -10 2 0 4 5 4 10 0 6 -5 10 -11 10 -5 0 -7
-4 -4 -10z"/>
<path d="M1610 139 c0 -5 5 -7 10 -4 6 3 10 8 10 11 0 2 -4 4 -10 4 -5 0 -10
-5 -10 -11z"/>
<path d="M2175 140 c3 -5 8 -10 11 -10 2 0 4 5 4 10 0 6 -5 10 -11 10 -5 0 -7
-4 -4 -10z"/>
<path d="M2206 142 c-3 -5 1 -9 9 -9 8 0 12 4 9 9 -3 4 -7 8 -9 8 -2 0 -6 -4
-9 -8z"/>
<path d="M2375 140 c3 -5 8 -10 11 -10 2 0 4 5 4 10 0 6 -5 10 -11 10 -5 0 -7
-4 -4 -10z"/>
<path d="M2570 139 c0 -5 5 -7 10 -4 6 3 10 8 10 11 0 2 -4 4 -10 4 -5 0 -10
-5 -10 -11z"/>
<path d="M3135 140 c3 -5 8 -10 11 -10 2 0 4 5 4 10 0 6 -5 10 -11 10 -5 0 -7
-4 -4 -10z"/>
<path d="M3166 142 c-3 -5 1 -9 9 -9 8 0 12 4 9 9 -3 4 -7 8 -9 8 -2 0 -6 -4
-9 -8z"/>
<path d="M3335 140 c3 -5 8 -10 11 -10 2 0 4 5 4 10 0 6 -5 10 -11 10 -5 0 -7
-4 -4 -10z"/>
<path d="M3530 139 c0 -5 5 -7 10 -4 6 3 10 8 10 11 0 2 -4 4 -10 4 -5 0 -10
-5 -10 -11z"/>
<path d="M4095 140 c3 -5 8 -10 11 -10 2 0 4 5 4 10 0 6 -5 10 -11 10 -5 0 -7
-4 -4 -10z"/>
<path d="M4126 142 c-3 -5 1 -9 9 -9 8 0 12 4 9 9 -3 4 -7 8 -9 8 -2 0 -6 -4
-9 -8z"/>
<path d="M4176 142 c-3 -5 1 -9 9 -9 8 0 12 4 9 9 -3 4 -7 8 -9 8 -2 0 -6 -4
-9 -8z"/>
<path d="M4330 140 c0 -5 5 -10 11 -10 5 0 7 5 4 10 -3 6 -8 10 -11 10 -2 0
-4 -4 -4 -10z"/>
<path d="M4413 135 c0 -8 4 -12 9 -9 5 3 6 10 3 15 -9 13 -12 11 -12 -6z"/>
<path d="M1696 82 c-3 -5 1 -9 9 -9 8 0 12 4 9 9 -3 4 -7 8 -9 8 -2 0 -6 -4
-9 -8z"/>
<path d="M2656 82 c-3 -5 1 -9 9 -9 8 0 12 4 9 9 -3 4 -7 8 -9 8 -2 0 -6 -4
-9 -8z"/>
<path d="M3616 82 c-3 -5 1 -9 9 -9 8 0 12 4 9 9 -3 4 -7 8 -9 8 -2 0 -6 -4
-9 -8z"/>
</g>
</svg>
